# AST/ASF file generated using VICON BodyLanguage
# -----------------------------------------------
:version 1.10
:name VICON
:units
  mass 1.0
  length 0.45
  angle deg
:documentation
   .ast/.asf automatically generated from VICON data using
   VICON BodyBuilder and BodyLanguage model FoxedUp or BRILLIANT.MOD
:root
   order TX TY TZ RX RY RZ
   axis XYZ
   position 0 0 0  
   orientation 0 -0 0 
:bonedata
  begin
     id 1 
     name lhipjoint
     direction 0.515797 -0.759363 0.396637 
     length 2.47888 
     axis 0 -0 0  XYZ
  end
  begin
     id 2 
     name lfemur
     direction 0.34202 -0.939693 0  
     length 6.81885  
     axis 0 -0 20  XYZ
    dof rx ry rz
    limits (-160.0 20.0)
           (-70.0 70.0)
           (-60.0 70.0)
  end
  begin
     id 3 
     name ltibia
     direction 0.342037 -0.939687 0   
     length 7.89258   
     axis 0 -0 20   XYZ
    dof rx
    limits (-10.0 170.0)
  end
  begin
     id 4 
     name lfoot
     direction 0.173497 -0.476678 0.861787   
     length 2.51543   
     axis -90 -1.13533e-015 20   XYZ
    dof rx rz
    limits (-45.0 90.0)
           (-70.0 20.0)
  end
  begin
     id 5 
     name ltoes
     direction 1.53564e-011 -4.21897e-011 1   
     length 1.21388   
     axis -90 -1.13533e-015 20   XYZ
    dof rx
    limits (-90.0 20.0)
  end
  begin
     id 6 
     name rhipjoint
     direction -0.489454 -0.772941 0.403729   
     length 2.43534  
     axis 0 -0 0  XYZ 
  end
  begin
     id 7 
     name rfemur
     direction -0.34202 -0.939693 0   
     length 7.10357   
     axis 0 -0 -20   XYZ
    dof rx ry rz
    limits (-160.0 20.0)
           (-70.0 70.0)
           (-70.0 60.0)
  end
  begin
     id 8 
     name rtibia
     direction -0.34202 -0.939693 0   
     length 9.16127   
     axis 0 -0 -20   XYZ
    dof rx
    limits (-10.0 170.0)
 end
 begin
     id 9 
     name rfoot
     direction -0.270974 -0.748671 0.605033   
     length 1.74894  
     axis -90 1.13533e-015 -20   XYZ
    dof rx rz
    limits (-45.0 90.0)
           (-20.0 70.0)
  end
  begin
     id 10 
     name rtoes
     direction -1.53557e-011 -4.21759e-011 1   
     length 0.787585   
     axis -90 1.13533e-015 -20   XYZ
    dof rx
    limits (-90.0 20.0)
  end
  begin
     id 11 
     name lowerback
     direction -0.0140249 0.999561 0.0260968   
     length 2.16963   
     axis 0 -0 0   XYZ
    dof rx ry rz
    limits (-20.0 45.0)
           (-30.0 30.0)
           (-30.0 30.0)
  end
  begin
     id 12 
     name upperback
     direction 0.00860018 0.999959 -0.002711   
     length 2.1726   
     axis 0 -0 0   XYZ
    dof rx ry rz
    limits (-20.0 45.0)
           (-30.0 30.0)
           (-30.0 30.0)
  end
  begin
     id 13 
     name thorax
     direction 0.015211 0.999782 -0.0143191   
     length 2.17061   
     axis 0 -0 0   XYZ
    dof rx ry rz
    limits (-20.0 45.0)
           (-30.0 30.0)
           (-30.0 30.0)
  end
  begin
     id 14 
     name lowerneck
     direction -0.0140143 0.999447 0.030145   
     length 2.26749   
     axis 0 -0 0   XYZ
    dof rx ry rz
    limits (-20.0 45.0)
           (-30.0 30.0)
           (-30.0 30.0)
  end
  begin
     id 15 
     name upperneck
     direction 0.118062 0.961438 -0.248392   
     length 2.22728   
     axis 0 -0 0   XYZ
    dof rx ry rz
    limits (-20.0 45.0)
           (-30.0 30.0)
           (-30.0 30.0)
  end
  begin
     id 16
     name head
     direction 0.0431885 0.9954 -0.085514  
     length 2.28786  
     axis 0 -0 0   XYZ
    dof rx ry rz
    limits (-20.0 45.0)
           (-30.0 30.0)
           (-30.0 30.0)
  end
  begin
     id 17 
     name lclavicle
     direction 0.912126 0.409548 0.0172323  
     length 4.31571  
     axis 0 -0 0   XYZ
    dof ry rz
    limits (-20.0 10.0)
           (0.0 20.0)
  end
  begin
     id 18 
     name lhumerus
     direction 1 -4.48977e-011 1.93091e-027   
     length 5.13658   
     axis 180 -30 -90   XYZ
    dof rx ry rz
    limits (-60.0 90.0)
           (-90.0 90.0)
           (-90.0 90.0)
  end
  begin
     id 19
     name lradius
     direction 1 -4.48916e-011 6.84018e-027   
     length 3.22473   
     axis 180 -30 -90   XYZ
    dof rx
    limits (-10.0 170.0)
  end
  begin
     id 20
     name lwrist
     direction 1 -4.48987e-011 7.01981e-027   
     length 1.61236   
     axis -4.37994e-015 90 90   XYZ
    dof ry
    limits (-180.0 0.0)
 end
  begin
     id 21 
     name lhand
     direction 1 -4.49037e-011 1.40335e-026   
     length 0.936406   
     axis -8.96029e-015 90 90   XYZ
    dof rx rz
    limits (-90.0 90.0)
           (-45.0 45.0)
  end
  begin
     id 22 
     name lfingers
     direction 1 -4.48886e-011 2.8104e-026   
     length 0.754955   
     axis -1.79203e-014 90 90   XYZ
    dof rx
    limits (0.0 90.0)
  end
  begin
     id 23
     name lthumb
     direction 0.707107 -6.34937e-011 0.707107   
     length 1.08397   
     axis -90 45 -4.48555e-014   XYZ
    dof rx rz
    limits (-45.0 45.0)
           (-45.0 45.0)
  end
  begin
     id 24 
     name rclavicle
     direction -0.947962 0.317997 0.0156638   
     length 4.86918  
     axis 0 -0 0   XYZ 
    dof ry rz
    limits (-10.0 20.0)
           (-20.0 0.0)
  end
  begin
     id 25 
     name rhumerus
     direction -1 -4.48951e-011 2.80534e-018  
     length 5.60911   
     axis 180 30 90   XYZ
    dof rx ry rz
    limits (-90.0 60.0)
           (-90.0 90.0)
           (-90.0 90.0)
  end
  begin
     id 26 
     name rradius
     direction -1 -4.4898e-011 2.11315e-027   
     length 3.38704   
     axis 180 30 90   XYZ
    dof rx
    limits (-10.0 170.0)
  end
  begin
     id 27 
     name rwrist
     direction -1 -4.48933e-011 7.02314e-027   
     length 1.69352   
     axis -4.37994e-015 -90 -90   XYZ
    dof ry
    limits (-180.0 0.0)
  end
  begin
     id 28
     name rhand
     direction -1 -4.48937e-011 1.40458e-026   
     length 0.755878   
     axis -8.96029e-015 -90 -90   XYZ
    dof rx rz
    limits (-90.0 90.0)
           (-45.0 45.0)
  end
  begin
     id 29
     name rfingers
     direction -1 -4.4901e-011 2.80737e-026   
     length 0.609409   
     axis -1.79203e-014 -90 -90   XYZ
    dof rx
    limits (0.0 90.0)
  end
  begin
     id 30
     name rthumb
     direction -0.707107 -6.34968e-011 0.707107   
     length 0.874992   
     axis -90 -45 4.48555e-014   XYZ
    dof rx rz
    limits (-45.0 45.0)
           (-45.0 45.0)
  end
:hierarchy
  begin
    root lhipjoint rhipjoint lowerback
    lhipjoint lfemur
    lfemur ltibia
    ltibia lfoot
    lfoot ltoes
    rhipjoint rfemur
    rfemur rtibia
    rtibia rfoot
    rfoot rtoes
    lowerback upperback
    upperback thorax
    thorax lowerneck lclavicle rclavicle
    lowerneck upperneck
    upperneck head
    lclavicle lhumerus
    lhumerus lradius
    lradius lwrist
    lwrist lhand lthumb
    lhand lfingers
    rclavicle rhumerus
    rhumerus rradius
    rradius rwrist
    rwrist rhand rthumb
    rhand rfingers
  end

#!OML:ASF C:\ViconDB\ViconDB\414\Spring2016\041811\Spring2016.ASF
:FULLY-SPECIFIED
:DEGREES
1
root 9.82037 18.2004 9.16718 -176.846 -5.86011 -179.366
lowerback 4.28552 0.469462 -1.61766
upperback 1.52481 0.508462 0.36532
thorax -0.854875 0.227556 1.25702
lowerneck -11.2496 -2.92364 -11.0373
upperneck 22.5038 -7.13327 15.6607
head 9.89006 -3.23869 6.50946
rclavicle -3.6154e-015 -4.57205e-015
rhumerus -38.4124 -11.5086 -84.7504
rradius 46.2205
rwrist 29.5011
rhand -34.5018 -14.1464
rfingers 7.12502
rthumb -7.66393 -43.9875
lclavicle -3.6154e-015 -4.57205e-015
lhumerus -34.7297 0.719399 85.503
lradius 26.6173
lwrist -20.4982
lhand -34.5806 18.8735
lfingers 7.12502
lthumb -7.74002 48.7119
rfemur 1.92884 -13.9711 20.8472
rtibia 8.64157
rfoot -11.8917 0.238743
rtoes -12.0896
lfemur -9.87229 -3.90589 -14.1764
ltibia 26.1274
lfoot -21.8099 9.62719
ltoes -8.64061
2
root 9.81768 18.1969 9.19748 -176.667 -5.78386 -179.411
lowerback 4.84834 0.518857 -1.43391
upperback 1.59776 0.562568 0.215848
thorax -1.09285 0.252447 0.994139
lowerneck -11.369 -3.01062 -10.893
upperneck 22.3227 -7.23698 15.685
head 9.86379 -3.25937 6.47173
rclavicle -3.45016e-014 1.42131e-014
rhumerus -38.4009 -12.5641 -84.1861
rradius 44.6603
rwrist 31.5619
rhand -35.2851 -13.4435
rfingers 7.12502
rthumb -8.41995 -43.2557
lclavicle -3.45016e-014 1.42131e-014
lhumerus -34.856 1.32497 84.9444
lradius 25.6948
lwrist -22.207
lhand -34.5746 18.2545
lfingers 7.12502
lthumb -7.7342 48.0931
rfemur 0.872194 -13.8974 20.876
rtibia 9.91901
rfoot -11.6626 -0.0485747
rtoes -11.8941
lfemur -10.4596 -3.62143 -14.2067
ltibia 26.5425
lfoot -21.7313 9.51569
ltoes -8.75289
3
root 9.83157 18.1925 9.2365 -176.439 -5.93951 -179.405
lowerback 5.22121 0.476694 -1.61744
upperback 1.82221 0.479306 0.349145
thorax -1.07069 0.202275 1.23743
lowerneck -11.5064 -3.14658 -11.0432
upperneck 21.9483 -7.24791 15.635
head 9.7661 -3.25155 6.46582
rclavicle 8.02593e-015 -1.19271e-015
rhumerus -38.1109 -13.3708 -83.6454
rradius 43.4932
rwrist 32.2639
rhand -35.533 -13.5826
rfingers 7.12502
rthumb -8.65917 -43.385
lclavicle 8.02593e-015 -1.19271e-015
lhumerus -34.7743 1.44779 84.9574
lradius 25.1983
lwrist -22.4764
lhand -34.4593 18.2968
lfingers 7.12502
lthumb -7.62286 48.1394
rfemur -0.251587 -14.0482 21.0804
rtibia 11.212
rfoot -11.3887 -0.338476
rtoes -11.7498
lfemur -11.2529 -3.1521 -14.0868
ltibia 27.0903
lfoot -21.5595 8.98797
ltoes -8.77526
4
root 9.83008 18.1846 9.28209 -176.295 -5.66567 -179.161
lowerback 5.9005 0.571224 -1.24752
upperback 1.94164 0.600152 0.33844
thorax -1.32665 0.257667 1.00699
lowerneck -11.525 -3.20845 -11.099
upperneck 21.5493 -7.28824 15.8653
head 9.64914 -3.24314 6.54248
rclavicle -9.7156e-015 -1.59028e-015
rhumerus -38.0816 -14.1191 -83.2914
rradius 42.4738
rwrist 33.2063
rhand -35.7 -14.1428
rfingers 7.12502
rthumb -8.82035 -43.9385
lclavicle -9.7156e-015 -1.59028e-015
lhumerus -34.8728 1.59476 84.6241
lradius 24.778
lwrist -22.9396
lhand -33.9887 18.172
lfingers 7.12502
lthumb -7.16864 48.0306
rfemur -1.38203 -13.798 21.399
rtibia 12.4879
rfoot -11.273 -0.599342
rtoes -11.6266
lfemur -11.9183 -2.60945 -13.8134
ltibia 27.6189
lfoot -21.5064 8.76272
ltoes -8.82995
5
root 9.8338 18.1751 9.32401 -176.105 -5.55617 -179.293
lowerback 6.61307 0.620404 -1.45027
upperback 2.04652 0.628826 0.393548
thorax -1.61883 0.266411 1.17066
lowerneck -11.4657 -3.30049 -11.3102
upperneck 21.0898 -7.25853 15.8972
head 9.48321 -3.22688 6.58103
rclavicle -1.00635e-015 2.98177e-015
rhumerus -38.1798 -14.4993 -82.6911
rradius 41.6814
rwrist 33.825
rhand -35.6087 -14.4366
rfingers 7.12502
rthumb -8.73224 -44.2359
lclavicle -1.00635e-015 2.98177e-015
lhumerus -35.125 1.59302 84.7023
lradius 24.5044
lwrist -22.801
lhand -33.8682 17.7851
lfingers 7.12502
lthumb -7.05236 47.6476
rfemur -2.48313 -13.5492 21.3602
rtibia 13.7602
rfoot -10.9883 -0.760404
rtoes -11.4742
lfemur -12.6244 -2.12772 -13.9128
ltibia 28.179
lfoot -21.4452 8.39378
ltoes -8.6659
6
root 9.83543 18.1648 9.36102 -175.85 -5.359 -179.283
lowerback 7.21686 0.70611 -1.25238
upperback 2.1646 0.728449 0.23962
thorax -1.83147 0.309767 0.88854
lowerneck -11.5681 -3.38185 -11.1639
upperneck 20.7359 -7.34328 16.0183
head 9.39597 -3.23061 6.57548
rclavicle -1.98039e-014 7.65321e-015
rhumerus -38.3864 -15.1971 -82.4154
rradius 41.0795
rwrist 34.5652
rhand -35.5609 -14.2624
rfingers 7.12502
rthumb -8.6861 -44.0637
lclavicle -1.98039e-014 7.65321e-015
lhumerus -35.4805 0.732222 84.6249
lradius 24.4328
lwrist -22.8471
lhand -33.6013 17.9765
lfingers 7.12502
lthumb -6.7947 47.8474
rfemur -3.67462 -13.3199 21.472
rtibia 15.0456
rfoot -10.7169 -1.00126
rtoes -11.5064
lfemur -13.4166 -1.44536 -13.865
ltibia 28.8202
lfoot -21.4153 7.91641
ltoes -8.69025
7
root 9.83867 18.1537 9.40418 -175.587 -5.28154 -179.187
lowerback 7.95848 0.737681 -1.1322
upperback 2.19043 0.758868 0.314127
thorax -2.21655 0.321046 0.88851
lowerneck -11.4573 -3.46555 -11.3967
upperneck 20.3492 -7.34374 16.1009
head 9.2543 -3.23387 6.63573
rclavicle 5.54112e-015 9.93923e-016
rhumerus -38.806 -15.5674 -81.8392
rradius 40.727
rwrist 35.35
rhand -35.2184 -14.7405
rfingers 7.12502
rthumb -8.3555 -44.5552
lclavicle 5.54112e-015 9.93923e-016
lhumerus -35.8171 1.06471 84.3855
lradius 24.0977
lwrist -23.6695
lhand -33.2564 17.773
lfingers 7.12502
lthumb -6.46171 47.6544
rfemur -4.91464 -13.1905 21.6886
rtibia 16.3633
rfoot -10.4523 -1.22855
rtoes -11.3556
lfemur -14.2846 -0.913747 -13.7264
ltibia 29.4864
lfoot -21.34 7.48888
ltoes -8.66436
8
root 9.84655 18.137 9.45802 -175.38 -5.54596 -179.06
lowerback 8.97798 0.599024 -0.767294
upperback 2.22308 0.573218 0.183218
thorax -2.73822 0.221401 0.560044
lowerneck -11.4706 -3.48242 -11.2243
upperneck 19.9416 -7.35173 16.247
head 9.12002 -3.2059 6.64278
rclavicle 1.98785e-015 3.67752e-015
rhumerus -39.199 -15.4702 -81.9222
rradius 40.5818
rwrist 34.9604
rhand -35.1353 -14.7197
rfingers 7.12502
rthumb -8.27531 -44.5376
lclavicle 1.98785e-015 3.67752e-015
lhumerus -36.2049 0.629035 83.9635
lradius 23.8862
lwrist -24.0376
lhand -32.9617 17.5477
lfingers 7.12502
lthumb -6.17726 47.4376
rfemur -6.07966 -13.1973 21.9774
rtibia 17.6297
rfoot -10.0718 -1.30127
rtoes -11.2892
lfemur -15.2491 -0.519471 -13.5231
ltibia 30.2005
lfoot -21.1637 6.90218
ltoes -8.72361
9
root 9.85009 18.122 9.50375 -175.045 -5.58232 -178.975
lowerback 9.63765 0.625718 -0.54788
upperback 2.33176 0.604886 0.167915
thorax -2.98856 0.227875 0.41328
lowerneck -11.422 -3.61141 -11.2755
upperneck 19.4157 -7.42196 16.3371
head 8.95099 -3.22383 6.65896
rclavicle 1.52567e-014 5.56597e-015
rhumerus -39.6006 -15.3962 -81.7045
rradius 40.4075
rwrist 35.0438
rhand -35.1193 -14.8736
rfingers 7.12502
rthumb -8.25993 -44.6921
lclavicle 1.52567e-014 5.56597e-015
lhumerus -36.5574 -0.379718 84.2098
lradius 24.1298
lwrist -22.9046
lhand -32.4618 17.9951
lfingers 7.12502
lthumb -5.69458 47.8985
rfemur -7.34546 -13.1655 22.2001
rtibia 18.8598
rfoot -9.86622 -1.47892
rtoes -11.1692
lfemur -16.3166 0.0589746 -13.3988
ltibia 30.9974
lfoot -21.089 6.32131
ltoes -8.68809
